<svg width="20" height="20" viewBox="0 0 20 20" fill="none" xmlns="http://www.w3.org/2000/svg">
<g clip-path="url(#clip0_64_46)">
<path d="M10 19.0445C10.35 19.0364 10.6858 18.9049 10.9481 18.6731C11.2104 18.4413 11.3823 18.1241 11.4333 17.7778H8.51111C8.56359 18.1336 8.74351 18.4581 9.01739 18.6911C9.29126 18.9241 9.64046 19.0497 10 19.0445Z" fill="#5D748E"/>
<path d="M18.0611 15.4611C17.5254 14.9835 17.0564 14.436 16.6667 13.8333C16.2412 13.0014 15.9863 12.0929 15.9167 11.1611V8.41664C15.9144 8.08328 15.8847 7.75067 15.8278 7.42219C15.3905 7.33479 14.9703 7.17719 14.5833 6.95553C14.7308 7.43044 14.8058 7.92491 14.8056 8.42219V11.1666C14.8737 12.3033 15.1863 13.4119 15.7222 14.4166C16.1058 15.0244 16.5609 15.584 17.0778 16.0833H2.85001C3.36691 15.584 3.82201 15.0244 4.20557 14.4166C4.74147 13.4119 5.05414 12.3033 5.12224 11.1666V8.41664C5.11931 7.77369 5.24324 7.13647 5.48693 6.54148C5.73061 5.94649 6.08927 5.40542 6.54236 4.94923C6.99545 4.49304 7.53407 4.13071 8.12739 3.88298C8.7207 3.63525 9.35706 3.50698 10 3.50553C10.941 3.50628 11.8609 3.78456 12.6445 4.30553C12.5581 3.9883 12.5096 3.66195 12.5 3.33331V2.98331C11.9199 2.69795 11.2968 2.51024 10.6556 2.42775V1.72775C10.6556 1.53105 10.5774 1.3424 10.4383 1.20331C10.2993 1.06422 10.1106 0.986084 9.9139 0.986084C9.7172 0.986084 9.52855 1.06422 9.38947 1.20331C9.25038 1.3424 9.17224 1.53105 9.17224 1.72775V2.45553C7.73652 2.65806 6.42255 3.37316 5.47291 4.46882C4.52327 5.56448 4.00208 6.96672 4.00557 8.41664V11.1611C3.93599 12.0929 3.681 13.0014 3.25557 13.8333C2.87273 14.4346 2.41123 14.982 1.88335 15.4611C1.82409 15.5131 1.77659 15.5772 1.74402 15.6491C1.71145 15.7209 1.69456 15.7989 1.69446 15.8778V16.6333C1.69446 16.7806 1.75299 16.922 1.85718 17.0261C1.96136 17.1303 2.10267 17.1889 2.25001 17.1889H17.6945C17.8418 17.1889 17.9831 17.1303 18.0873 17.0261C18.1915 16.922 18.25 16.7806 18.25 16.6333V15.8778C18.2499 15.7989 18.233 15.7209 18.2005 15.6491C18.1679 15.5772 18.1204 15.5131 18.0611 15.4611Z" fill="#5D748E"/>
<path d="M16.6667 6.1111C18.2008 6.1111 19.4445 4.86744 19.4445 3.33332C19.4445 1.7992 18.2008 0.555542 16.6667 0.555542C15.1326 0.555542 13.8889 1.7992 13.8889 3.33332C13.8889 4.86744 15.1326 6.1111 16.6667 6.1111Z" fill="#5D748E"/>
</g>
<defs>
<clipPath id="clip0_64_46">
<rect width="20" height="20" fill="white"/>
</clipPath>
</defs>
</svg>
