<svg width="20" height="20" viewBox="0 0 20 20" fill="none" xmlns="http://www.w3.org/2000/svg">
<path fill-rule="evenodd" clip-rule="evenodd" d="M18.7499 10.0001C18.7499 9.8343 18.684 9.67533 18.5668 9.55812C18.4496 9.44091 18.2907 9.37506 18.1249 9.37506H3.38365L7.3174 5.44256C7.37551 5.38445 7.4216 5.31546 7.45305 5.23954C7.4845 5.16361 7.50069 5.08224 7.50069 5.00006C7.50069 4.91788 7.4845 4.8365 7.45305 4.76058C7.4216 4.68465 7.37551 4.61567 7.3174 4.55756C7.25929 4.49945 7.1903 4.45335 7.11438 4.4219C7.03845 4.39045 6.95708 4.37427 6.8749 4.37427C6.79272 4.37427 6.71134 4.39045 6.63542 4.4219C6.55949 4.45335 6.49051 4.49945 6.4324 4.55756L1.4324 9.55756C1.37419 9.61561 1.32801 9.68458 1.29651 9.76052C1.265 9.83645 1.24878 9.91785 1.24878 10.0001C1.24878 10.0823 1.265 10.1637 1.29651 10.2396C1.32801 10.3155 1.37419 10.3845 1.4324 10.4426L6.4324 15.4426C6.49051 15.5007 6.55949 15.5468 6.63542 15.5782C6.71134 15.6097 6.79272 15.6258 6.8749 15.6258C6.95708 15.6258 7.03845 15.6097 7.11438 15.5782C7.1903 15.5468 7.25929 15.5007 7.3174 15.4426C7.37551 15.3844 7.4216 15.3155 7.45305 15.2395C7.4845 15.1636 7.50069 15.0822 7.50069 15.0001C7.50069 14.9179 7.4845 14.8365 7.45305 14.7606C7.4216 14.6847 7.37551 14.6157 7.3174 14.5576L3.38365 10.6251H18.1249C18.2907 10.6251 18.4496 10.5592 18.5668 10.442C18.684 10.3248 18.7499 10.1658 18.7499 10.0001Z" fill="#6A6A6A"/>
</svg>
