<svg width="18" height="18" viewBox="0 0 18 18" fill="none" xmlns="http://www.w3.org/2000/svg">
<path fill-rule="evenodd" clip-rule="evenodd" d="M12.6041 11.4158L17.0875 15.8992C17.2451 16.0568 17.3335 16.2707 17.3335 16.4936C17.3334 16.7166 17.2447 16.9303 17.0871 17.0879C16.9294 17.2455 16.7155 17.334 16.4926 17.3339C16.2697 17.3338 16.0559 17.2452 15.8983 17.0875L11.415 12.6042C10.0747 13.6422 8.38937 14.1307 6.70174 13.9703C5.01412 13.8098 3.451 13.0125 2.33037 11.7405C1.20975 10.4685 0.615795 8.81733 0.669346 7.12295C0.722897 5.42856 1.41993 3.81821 2.61864 2.61949C3.81735 1.42078 5.4277 0.723752 7.12209 0.6702C8.81648 0.616649 10.4676 1.2106 11.7396 2.33123C13.0117 3.45185 13.809 5.01497 13.9694 6.7026C14.1299 8.39022 13.6422 10.0756 12.6041 11.4158ZM7.3333 12.3333C8.65938 12.3333 9.93115 11.8065 10.8688 10.8689C11.8065 9.93118 12.3333 8.65941 12.3333 7.33332C12.3333 6.00724 11.8065 4.73547 10.8688 3.79779C9.93115 2.86011 8.65938 2.33332 7.3333 2.33332C6.00722 2.33332 4.73545 2.86011 3.79777 3.79779C2.86009 4.73547 2.3333 6.00724 2.3333 7.33332C2.3333 8.65941 2.86009 9.93118 3.79777 10.8689C4.73545 11.8065 6.00722 12.3333 7.3333 12.3333Z" fill="#999999"/>
</svg>
