<svg width="75" height="75" viewBox="0 0 75 75" fill="none" xmlns="http://www.w3.org/2000/svg">
<path d="M46.9043 65.3379L24.9199 65.3672L1.61719 55.875C1.61719 55.875 1.46484 48.4981 1.91602 40.8633C2.36719 33.2285 4.48242 21.6211 4.48242 21.6211C4.48242 21.6211 4.35352 19.5 4.61133 18.3516C4.85742 17.2617 5.51367 16.377 7.33594 16.2715C9.00586 16.1719 46.6641 16.2715 47.6894 16.4004C48.7148 16.5293 54.8965 24 54.8965 24C54.8965 24 63.6152 38.4258 63.8672 38.7481C64.125 39.0703 69.8203 42.9082 70.7285 44.0742C71.6777 45.293 71.6133 46.2891 71.6133 46.2891L71.5781 56.1504L46.9043 65.3379Z" fill="#E1E1E1"/>
<path d="M1.61135 55.8691C1.61135 55.8691 14.3379 55.752 16.9688 56.3027C19.5996 56.8535 21.3692 58.4238 22.8574 60.8203C24.3516 63.2168 24.9375 65.3789 24.9375 65.3789C24.9375 65.3789 4.16018 65.3379 3.45705 65.3789C2.75393 65.4199 1.80471 64.3184 1.72854 62.8242C1.64651 61.3301 1.61135 55.8691 1.61135 55.8691ZM46.8926 65.332C46.8926 65.332 48.6973 61.0137 50.584 59.0859C52.4707 57.1582 55.2188 55.8633 58.5176 55.7461C61.8164 55.6289 71.5664 55.5527 71.5664 55.5527C71.5664 55.5527 73.7578 57.3574 73.916 59.9063C74.0742 62.4609 73.916 64.8926 71.8711 65.0508C69.8262 65.209 46.8926 65.332 46.8926 65.332Z" fill="#516C73"/>
<path d="M65.9297 65.8887C65.8828 68.6602 63.6739 72.6563 58.8574 72.6856C54.041 72.7148 51.5449 69.0293 51.6973 65.25C51.8496 61.4063 54.8379 58.6992 59.1328 58.8164C63.1582 58.9336 65.9942 62.0508 65.9297 65.8887Z" fill="#4E433D"/>
<path d="M62.4902 65.7246C62.4668 67.1894 61.3066 69.293 58.7754 69.3105C56.2441 69.3281 55.0137 67.4941 55.0957 65.5019C55.1777 63.4746 56.7949 61.9687 58.9219 61.998C61.0313 62.0273 62.5195 63.7031 62.4902 65.7246Z" fill="#C8C8C8"/>
<path d="M19.9629 65.5605C19.916 68.332 17.707 72.3281 12.8906 72.3574C8.07418 72.3867 5.57809 68.7012 5.73043 64.9219C5.88277 61.0781 8.87106 58.3711 13.166 58.4883C17.1855 58.5996 20.0214 61.7168 19.9629 65.5605Z" fill="#4E433D"/>
<path d="M16.5176 65.3965C16.4941 66.8613 15.334 68.9648 12.8027 68.9824C10.2715 69 9.04102 67.166 9.12305 65.1738C9.20508 63.1465 10.8223 61.6406 12.9492 61.6699C15.0586 61.6992 16.5527 63.3691 16.5176 65.3965Z" fill="#C8C8C8"/>
<path d="M71.5898 53.2383L1.58789 53.5137C1.58789 53.5137 1.57617 52.2715 1.57617 50.6309C1.57617 49.0137 1.63477 47.8008 1.63477 47.8008L71.6367 47.7832L71.5898 53.2383Z" fill="#D70617"/>
<path d="M71.625 46.2715C71.625 46.2715 64.4942 46.2422 64.1074 46.2422C63.7207 46.2422 63.416 46.541 63.416 47.0508C63.416 47.5605 63.2051 49.4473 64.7344 50.8535C65.3906 51.457 66.8086 51.5859 68.1504 51.6035C70.1602 51.627 71.4434 51.6387 71.6074 51.6387C71.6074 51.6387 71.6953 47.6484 71.6836 47.1621C71.6602 46.5937 71.625 46.2715 71.625 46.2715Z" fill="#FFE365"/>
<path d="M55.0488 24.2578L4.01954 24.2461L4.22461 22.9219C4.34179 22.166 4.47656 21.627 4.47656 21.627L47.7363 21.6797L47.6836 16.3946C47.6836 16.3946 48.7324 16.2715 49.2832 16.7871C50.0625 17.5196 51.4629 18.9903 52.8164 20.7657C53.877 22.1543 55.0488 24.2578 55.0488 24.2578Z" fill="#C9C9C9"/>
<path d="M53.1328 18.668C54.4805 20.1739 54.0996 22.6465 54.0996 22.6465C54.0996 22.6465 49.7168 22.7871 49.5645 22.541C49.4121 22.3008 49.4766 16.9981 49.4766 16.9981C49.4766 16.9981 51.3106 16.6231 53.1328 18.668Z" fill="#FA2B23"/>
<path d="M47.6836 16.4121C47.4434 16.3828 33.75 16.2949 33.75 16.2949C33.75 16.2949 33.75 13.9453 33.7734 13.0957C33.8027 11.9414 34.7168 11.0625 36.3809 11.0039C37.5469 10.9629 44.1797 10.9102 45.2402 10.9746C46.3008 11.0332 47.5137 11.918 47.5781 13.2481C47.6426 14.5781 47.6836 16.4121 47.6836 16.4121Z" fill="#DD0F26"/>
<path d="M42.5273 13.5938L41.7539 15.2812L43.6055 15.252C43.6055 15.252 45.0293 13.8867 45.0293 13.582C45.0293 13.2773 43.4531 12.0937 43.4531 12.0937L41.502 12.0703L42.5273 13.5938ZM39.2168 13.6289L39.9023 15.3281L38.3613 15.3164C38.3613 15.3164 36.7793 13.957 36.7617 13.6934C36.7383 13.3125 38.3496 12.0762 38.3496 12.0762L40.0781 12.0703L39.2168 13.6289Z" fill="#FF5B5E"/>
<path d="M21.8086 26.1855C21.9316 27.1699 22.0137 35.7188 22.0137 35.7188L21.9727 44.4727L17.5957 44.3906L17.3496 35.4316L17.5137 26.2676L21.8086 26.1855Z" fill="#1E86FE"/>
<path d="M28.2598 38.2266L20.9004 33.1934L13.2891 28.3652L10.916 31.8809L18.4453 37.1191L26.0508 41.8242L28.2598 38.2266Z" fill="#1E86FE"/>
<path d="M26.2969 28.5293L28.5879 31.9629L21.3105 37.3242L13.7812 41.9883L11.3672 38.5488L18.9785 33.1934L26.2969 28.5293Z" fill="#1E86FE"/>
<path d="M52.6817 26.8125C53.4961 26.8887 54.2754 27.1406 54.8906 28.0781C55.5059 29.0215 60.8203 38.6309 61.3535 39.5332C61.6406 40.0196 61.9805 40.7754 61.8516 41.3672C61.7402 41.8653 61.2246 42.2403 60.6621 42.2754C59.4375 42.3574 43.8106 42.2344 42.9492 42.2344C42.0879 42.2344 41.3555 41.4961 41.3145 40.1895C41.2734 38.8828 41.209 29.3848 41.3145 28.3653C41.4375 27.1817 42.2168 26.8125 43.1953 26.7715C44.0977 26.7305 51.8262 26.7305 52.6817 26.8125Z" fill="#557077"/>
<path d="M51.7383 29.3203C52.541 29.332 53.1621 29.5957 53.7773 30.6211C54.1348 31.2187 58.4004 38.9648 58.5234 39.334C58.6465 39.7031 58.3594 40.0312 57.7441 40.0312C57.1289 40.0312 45.3105 39.9492 44.5722 39.9492C43.834 39.9492 43.4648 39.416 43.4297 38.3145C43.3887 37.207 43.4297 31.0723 43.4297 30.4219C43.4297 29.7715 43.7578 29.3145 44.6133 29.3145C45.4687 29.3086 51 29.3027 51.7383 29.3203Z" fill="#AFE3FB"/>
</svg>
