<svg width="21" height="20" viewBox="0 0 21 20" fill="none" xmlns="http://www.w3.org/2000/svg">
<path fill-rule="evenodd" clip-rule="evenodd" d="M2.35695 0.637742C2.57567 0.419343 2.83832 0.249922 3.12748 0.140707C3.41664 0.0314914 3.7257 -0.0150244 4.0342 0.00424171C4.34269 0.0235079 4.64357 0.108116 4.91689 0.252459C5.19022 0.396803 5.42974 0.597585 5.6196 0.841502L7.86345 3.72413C8.27472 4.25291 8.41973 4.94169 8.25722 5.59172L7.57344 8.32934C7.53808 8.47114 7.53999 8.61966 7.57898 8.7605C7.61797 8.90134 7.69271 9.0297 7.79595 9.13313L10.8673 12.2045C10.9709 12.308 11.0995 12.3828 11.2405 12.4218C11.3816 12.4608 11.5304 12.4626 11.6724 12.427L14.4087 11.7433C14.7295 11.663 15.0644 11.6568 15.3879 11.725C15.7114 11.7933 16.0152 11.9341 16.2763 12.137L19.159 14.3796C20.1953 15.1859 20.2903 16.7172 19.3627 17.6435L18.0702 18.9361C17.1451 19.8611 15.7626 20.2674 14.4738 19.8136C11.1751 18.653 8.18005 16.7645 5.71085 14.2884C3.23485 11.8195 1.34641 8.82494 0.185597 5.52672C-0.266924 4.23916 0.139345 2.85534 1.06439 1.9303L2.35695 0.637742Z" fill="white"/>
</svg>
