<svg width="21" height="20" viewBox="0 0 21 20" fill="none" xmlns="http://www.w3.org/2000/svg">
<g clip-path="url(#clip0_290_92)">
<path d="M10.2333 0.625C7.77391 0.626311 5.41355 1.59398 3.66101 3.31941V0.625H2.41101V5.625H7.41101V4.375H4.37535C5.13305 3.58523 6.04251 2.95668 7.04914 2.52708C8.05577 2.09748 9.13881 1.87569 10.2333 1.875C14.7079 1.875 18.3485 5.51562 18.3485 9.99023C18.3485 14.4648 14.7079 18.1055 10.2333 18.1055C5.75867 18.1055 2.11804 14.4648 2.11804 9.99023H0.868042C0.86804 11.8425 1.4173 13.6532 2.44636 15.1933C3.47543 16.7334 4.93808 17.9338 6.64935 18.6426C8.36063 19.3514 10.2437 19.5369 12.0603 19.1755C13.877 18.8142 15.5458 17.9222 16.8555 16.6125C18.1653 15.3027 19.0572 13.634 19.4186 11.8173C19.7799 10.0006 19.5945 8.11759 18.8856 6.40631C18.1768 4.69504 16.9764 3.23239 15.4363 2.20332C13.8962 1.17426 12.0855 0.624998 10.2333 0.625Z" fill="#CBCBCB"/>
<path d="M9.59854 4.37308L9.57764 11.25H14.5985V9.99999H10.8315L10.8485 4.37691L9.59854 4.37308Z" fill="#CBCBCB"/>
</g>
<defs>
<clipPath id="clip0_290_92">
<rect width="20" height="20" fill="white" transform="translate(0.223511)"/>
</clipPath>
</defs>
</svg>
