<svg width="21" height="20" viewBox="0 0 21 20" fill="none" xmlns="http://www.w3.org/2000/svg">
<path d="M19.7573 10.324L10.7508 0.31673C10.3715 -0.105577 9.64297 -0.105577 9.2637 0.31673L0.25717 10.324C0.127533 10.4677 0.0424392 10.646 0.0122369 10.8371C-0.0179654 11.0283 0.00802456 11.2241 0.0870468 11.4008C0.247163 11.762 0.605423 11.9942 1.00071 11.9942H3.00216V18.9993C3.00216 19.2647 3.10759 19.5192 3.29527 19.7069C3.48294 19.8946 3.73748 20 4.00289 20H7.00506C7.27047 20 7.52501 19.8946 7.71268 19.7069C7.90035 19.5192 8.00579 19.2647 8.00579 18.9993V14.9964H12.0087V18.9993C12.0087 19.2647 12.1141 19.5192 12.3018 19.7069C12.4895 19.8946 12.744 20 13.0094 20H16.0116C16.277 20 16.5315 19.8946 16.7192 19.7069C16.9069 19.5192 17.0123 19.2647 17.0123 18.9993V11.9942H19.0138C19.2076 11.995 19.3974 11.9394 19.5602 11.8342C19.723 11.729 19.8516 11.5787 19.9304 11.4017C20.0092 11.2246 20.0348 11.0284 20.0041 10.8371C19.9734 10.6457 19.8876 10.4674 19.7573 10.324Z" fill="#CBCBCB"/>
</svg>
