<svg width="66" height="66" viewBox="0 0 66 66" fill="none" xmlns="http://www.w3.org/2000/svg">
<circle cx="33" cy="33" r="33" fill="#EFEFEF"/>
<path d="M21.3422 33.3266C21.0531 33.3266 20.7062 33.2687 20.475 33.0953C19.7234 32.6906 18.7984 31.65 18.7984 28.875C18.7984 23.0937 15.6766 19.7406 15.6766 19.7406L15.1562 19.1625L17.8734 16.1562L18.3359 16.85C18.3937 16.9078 19.8391 18.9891 22.0938 18.4109L22.3828 19.9141C20.1281 20.4922 18.5094 19.2781 17.7 18.4109L17.1219 19.1625C18.1047 20.4344 20.1859 23.7875 20.1859 28.875C20.1859 30.3781 20.475 31.4187 21.0531 31.7078C21.4578 31.9391 22.0938 31.7078 22.6719 31.1297C24.175 29.6266 25.2734 25.9266 25.2734 25.9266L26.5453 26.3891C26.4875 26.5625 25.3313 30.5516 23.5391 32.2859C22.7875 32.9797 22.0359 33.3266 21.3422 33.3266ZM43.6578 33.3266C43.9469 33.3266 44.2937 33.2687 44.525 33.0953C45.2766 32.6906 46.2016 31.65 46.2016 28.875C46.2016 23.0359 49.2656 19.7406 49.3234 19.6828L49.8438 19.1625L47.1266 16.1562L46.6641 16.85C46.6063 16.9078 45.1609 18.9891 42.9062 18.4109L42.6172 19.9141C44.8719 20.4922 46.4906 19.2781 47.3 18.4109L47.9937 19.1625C47.0109 20.4344 44.9297 23.7875 44.9297 28.875C44.9297 30.3781 44.6406 31.4187 44.0625 31.7078C43.6578 31.9391 43.0219 31.7078 42.4438 31.1297C40.9406 29.6266 39.8422 25.9266 39.8422 25.9266L38.5703 26.3891C38.6281 26.5625 39.7844 30.5516 41.5766 32.2859C42.2125 32.9797 42.9641 33.3266 43.6578 33.3266ZM30.7656 29.3953H34.2922V43.5594H30.7656V29.3953Z" fill="#F2B200"/>
<path d="M31.4595 29.3953H33.5407V43.5593H31.4595V29.3953Z" fill="#FFCE31"/>
<path d="M20.8218 16.1562C21.8046 25.0594 26.6608 32.1703 32.4999 32.1703C38.339 32.1703 43.1952 25.0594 44.178 16.1562H20.8218Z" fill="#F2B200"/>
<path d="M23.0767 16.1562C23.886 25.175 27.8173 32.3438 32.5001 32.3438C37.1829 32.3438 41.1142 25.175 41.9235 16.1562H23.0767Z" fill="#FFCE31"/>
<path d="M41.5187 46.2188H23.4812C23.4812 46.2188 27.5281 41.0156 32.5 41.0156C37.4718 41.0156 41.5187 46.2188 41.5187 46.2188Z" fill="#F2B200"/>
<path d="M39.3797 46.2188H25.6204C25.6204 46.2188 28.6844 40.9 32.5 40.9C36.3157 40.9 39.3797 46.2188 39.3797 46.2188Z" fill="#FFCE31"/>
<path d="M20.8218 47.375H44.178V50.8438H20.8218V47.375Z" fill="#BC845E"/>
<path d="M23.4812 46.2188H41.5765V47.375H23.4812V46.2188Z" fill="#916140"/>
<path d="M26.7188 48.2422H38.2812V49.9766H26.7188V48.2422Z" fill="#F2B200"/>
<path d="M20.8218 47.375H21.978V50.8438H20.8218V47.375Z" fill="#CE9C7A"/>
<path d="M43.022 47.375H44.1782V50.8438H43.022V47.375Z" fill="#916140"/>
<path d="M27.2969 48.2422H37.7031V49.9766H27.2969V48.2422Z" fill="#FFCE31"/>
</svg>
