<svg width="66" height="66" viewBox="0 0 66 66" fill="none" xmlns="http://www.w3.org/2000/svg">
<circle cx="33" cy="33" r="33" fill="#EFEFEF"/>
<path d="M38.0157 46.8469L26.2907 46.8625L13.8626 41.8C13.8626 41.8 13.7813 37.8656 14.022 33.7937C14.2626 29.7219 15.3907 23.5312 15.3907 23.5312C15.3907 23.5312 15.322 22.4 15.4595 21.7875C15.5907 21.2062 15.9407 20.7344 16.9126 20.6781C17.8032 20.625 37.8876 20.6781 38.4345 20.7469C38.9813 20.8156 42.2782 24.8 42.2782 24.8C42.2782 24.8 46.9282 32.4937 47.0626 32.6656C47.2001 32.8375 50.2376 34.8844 50.722 35.5062C51.2282 36.1562 51.1938 36.6875 51.1938 36.6875L51.1751 41.9469L38.0157 46.8469Z" fill="#E1E1E1"/>
<path d="M13.8595 41.7969C13.8595 41.7969 20.647 41.7344 22.0501 42.0281C23.4532 42.3219 24.397 43.1594 25.1907 44.4375C25.9876 45.7156 26.3001 46.8687 26.3001 46.8687C26.3001 46.8687 15.2189 46.8469 14.8439 46.8687C14.4689 46.8906 13.9626 46.3031 13.922 45.5062C13.8782 44.7094 13.8595 41.7969 13.8595 41.7969ZM38.0095 46.8437C38.0095 46.8437 38.972 44.5406 39.9782 43.5125C40.9845 42.4844 42.4501 41.7937 44.2095 41.7312C45.9689 41.6687 51.1689 41.6281 51.1689 41.6281C51.1689 41.6281 52.3376 42.5906 52.422 43.95C52.5064 45.3125 52.422 46.6094 51.3314 46.6937C50.2407 46.7781 38.0095 46.8437 38.0095 46.8437Z" fill="#516C73"/>
<path d="M48.1625 47.1406C48.1375 48.6188 46.9594 50.75 44.3906 50.7657C41.8219 50.7813 40.4906 48.8157 40.5719 46.8C40.6531 44.75 42.2469 43.3063 44.5375 43.3688C46.6844 43.4313 48.1969 45.0938 48.1625 47.1406Z" fill="#4E433D"/>
<path d="M46.3281 47.0532C46.3156 47.8344 45.6969 48.9563 44.3469 48.9657C42.9969 48.975 42.3406 47.9969 42.3844 46.9344C42.4281 45.8532 43.2906 45.05 44.425 45.0657C45.55 45.0813 46.3438 45.975 46.3281 47.0532Z" fill="#C8C8C8"/>
<path d="M23.647 46.9656C23.622 48.4437 22.4439 50.575 19.8751 50.5906C17.3064 50.6062 15.9751 48.6406 16.0564 46.625C16.1376 44.575 17.7314 43.1312 20.022 43.1937C22.1657 43.2531 23.6782 44.9156 23.647 46.9656Z" fill="#4E433D"/>
<path d="M21.8095 46.8781C21.797 47.6594 21.1782 48.7812 19.8282 48.7906C18.4782 48.8 17.822 47.8219 17.8657 46.7594C17.9095 45.6781 18.772 44.875 19.9064 44.8906C21.0314 44.9062 21.8282 45.7969 21.8095 46.8781Z" fill="#C8C8C8"/>
<path d="M51.1813 40.3937L13.8469 40.5406C13.8469 40.5406 13.8407 39.8781 13.8407 39.0031C13.8407 38.1406 13.8719 37.4937 13.8719 37.4937L51.2063 37.4844L51.1813 40.3937Z" fill="#D70617"/>
<path d="M51.2001 36.6781C51.2001 36.6781 47.397 36.6625 47.1907 36.6625C46.9845 36.6625 46.822 36.8219 46.822 37.0937C46.822 37.3656 46.7095 38.3719 47.5251 39.1219C47.8751 39.4437 48.6314 39.5125 49.347 39.5219C50.4189 39.5344 51.1032 39.5406 51.1907 39.5406C51.1907 39.5406 51.2376 37.4125 51.2314 37.1531C51.2189 36.85 51.2001 36.6781 51.2001 36.6781Z" fill="#FFE365"/>
<path d="M42.3594 24.9375L15.1437 24.9312L15.2531 24.225C15.3156 23.8219 15.3875 23.5344 15.3875 23.5344L38.4594 23.5625L38.4312 20.7437C38.4312 20.7437 38.9906 20.6781 39.2844 20.9531C39.7 21.3437 40.4469 22.1281 41.1687 23.075C41.7344 23.8156 42.3594 24.9375 42.3594 24.9375Z" fill="#C9C9C9"/>
<path d="M41.3375 21.9562C42.0563 22.7594 41.8532 24.0781 41.8532 24.0781C41.8532 24.0781 39.5157 24.1531 39.4344 24.0219C39.3532 23.8937 39.3875 21.0656 39.3875 21.0656C39.3875 21.0656 40.3657 20.8656 41.3375 21.9562Z" fill="#FA2B23"/>
<path d="M38.4312 20.7531C38.303 20.7375 30.9999 20.6906 30.9999 20.6906C30.9999 20.6906 30.9999 19.4375 31.0124 18.9844C31.028 18.3688 31.5155 17.9 32.403 17.8688C33.0249 17.8469 36.5624 17.8188 37.128 17.8531C37.6937 17.8844 38.3405 18.3563 38.3749 19.0656C38.4093 19.775 38.4312 20.7531 38.4312 20.7531Z" fill="#DD0F26"/>
<path d="M35.6813 19.25L35.2687 20.15L36.2562 20.1344C36.2562 20.1344 37.0156 19.4062 37.0156 19.2437C37.0156 19.0812 36.175 18.45 36.175 18.45L35.1344 18.4375L35.6813 19.25ZM33.9156 19.2687L34.2812 20.175L33.4594 20.1687C33.4594 20.1687 32.6156 19.4438 32.6062 19.3031C32.5938 19.1 33.4531 18.4406 33.4531 18.4406L34.375 18.4375L33.9156 19.2687Z" fill="#FF5B5E"/>
<path d="M24.6313 25.9656C24.697 26.4906 24.7407 31.05 24.7407 31.05L24.7188 35.7188L22.3845 35.675L22.2532 30.8969L22.3407 26.0094L24.6313 25.9656Z" fill="#1E86FE"/>
<path d="M28.0718 32.3875L24.1468 29.7031L20.0874 27.1281L18.8218 29.0031L22.8374 31.7969L26.8937 34.3062L28.0718 32.3875Z" fill="#1E86FE"/>
<path d="M27.025 27.2156L28.2468 29.0469L24.3656 31.9063L20.35 34.3938L19.0625 32.5594L23.1218 29.7031L27.025 27.2156Z" fill="#1E86FE"/>
<path d="M41.0968 26.3C41.5312 26.3406 41.9468 26.475 42.2749 26.975C42.6031 27.4781 45.4374 32.6031 45.7218 33.0844C45.8749 33.3437 46.0562 33.7469 45.9874 34.0625C45.9281 34.3281 45.6531 34.5281 45.3531 34.5469C44.6999 34.5906 36.3656 34.525 35.9062 34.525C35.4468 34.525 35.0562 34.1312 35.0343 33.4344C35.0124 32.7375 34.9781 27.6719 35.0343 27.1281C35.0999 26.4969 35.5156 26.3 36.0374 26.2781C36.5187 26.2562 40.6406 26.2562 41.0968 26.3Z" fill="#557077"/>
<path d="M40.5936 27.6375C41.0218 27.6437 41.353 27.7844 41.6811 28.3312C41.8718 28.65 44.1468 32.7812 44.2124 32.9781C44.278 33.175 44.1249 33.35 43.7968 33.35C43.4686 33.35 37.1655 33.3062 36.7718 33.3062C36.378 33.3062 36.1811 33.0219 36.1624 32.4344C36.1405 31.8437 36.1624 28.5719 36.1624 28.225C36.1624 27.8781 36.3374 27.6344 36.7936 27.6344C37.2499 27.6312 40.1999 27.6281 40.5936 27.6375Z" fill="#AFE3FB"/>
</svg>
