<svg width="66" height="66" viewBox="0 0 66 66" fill="none" xmlns="http://www.w3.org/2000/svg">
<circle cx="33" cy="33" r="33" fill="#EFEFEF"/>
<path d="M31.9667 19.6667C35.1833 19.6667 38.1 20.9667 40.2167 23.0833L37.8667 25.4333C36.2985 23.8749 34.1775 23.0002 31.9667 23.0002C29.7558 23.0002 27.6348 23.8749 26.0667 25.4333L23.7167 23.0833C24.7988 21.9982 26.0847 21.1378 27.5006 20.5514C28.9164 19.965 30.4342 19.6644 31.9667 19.6667ZM44.9333 18.3833L42.5833 20.7333C39.8667 18.0167 36.1167 16.3333 31.9833 16.3333C27.85 16.3333 24.0833 18.0167 21.3667 20.7167L19 18.3667C22.3333 15.05 26.9167 13 31.9833 13C37.05 13 41.6167 15.05 44.9333 18.3833ZM31.9667 31.3333C35.2 31.3333 38.6333 33.75 38.6333 38.25C38.6333 39.8167 37.7167 43.1333 31.9667 48.5333C26.2167 43.1333 25.3 39.8167 25.3 38.25C25.3 33.75 28.7333 31.3333 31.9667 31.3333ZM31.9667 28C26.7167 28 21.9667 32.0167 21.9667 38.25C21.9667 42.4 25.3 47.3167 31.9667 53C38.6333 47.3167 41.9667 42.4 41.9667 38.25C41.9667 32.0167 37.2167 28 31.9667 28ZM34.4667 38C34.4667 36.6167 33.35 35.5 31.9667 35.5C30.5833 35.5 29.4667 36.6167 29.4667 38C29.4667 39.3833 30.5833 40.5 31.9667 40.5C33.35 40.5 34.4667 39.3833 34.4667 38Z" fill="#FF6161"/>
</svg>
