<svg width="66" height="66" viewBox="0 0 66 66" fill="none" xmlns="http://www.w3.org/2000/svg">
<circle cx="33" cy="33" r="33" fill="#EFEFEF"/>
<path d="M33 20.5312C39.882 20.5312 45.4609 26.1102 45.4609 32.9922V42.0938C45.4609 42.4253 45.3292 42.7432 45.0948 42.9776C44.8604 43.2121 44.5425 43.3438 44.2109 43.3438H21.7891C21.4575 43.3438 21.1396 43.2121 20.9052 42.9776C20.6708 42.7432 20.5391 42.4253 20.5391 42.0938V32.9922C20.5391 26.1102 26.118 20.5312 33 20.5312ZM31.9063 13.6562H34.0938C34.1766 13.6562 34.2561 13.6892 34.3147 13.7478C34.3733 13.8064 34.4062 13.8859 34.4062 13.9688V17.7188C34.4062 17.8016 34.3733 17.8811 34.3147 17.9397C34.2561 17.9983 34.1766 18.0312 34.0938 18.0312H31.9063C31.8234 18.0312 31.7439 17.9983 31.6853 17.9397C31.6267 17.8811 31.5938 17.8016 31.5938 17.7188V13.9688C31.5938 13.8859 31.6267 13.8064 31.6853 13.7478C31.7439 13.6892 31.8234 13.6562 31.9063 13.6562ZM19.9238 18.4867C19.9529 18.4577 19.9873 18.4346 20.0253 18.4189C20.0632 18.4032 20.1039 18.3951 20.1449 18.3951C20.186 18.3951 20.2267 18.4032 20.2646 18.4189C20.3025 18.4346 20.337 18.4577 20.366 18.4867L23.0176 21.1383C23.0761 21.1969 23.109 21.2763 23.109 21.3592C23.109 21.442 23.0761 21.5215 23.0176 21.5801L21.4707 23.127C21.4121 23.1855 21.3327 23.2184 21.2498 23.2184C21.167 23.2184 21.0875 23.1855 21.0289 23.127L18.3773 20.4754C18.3188 20.4168 18.2859 20.3373 18.2859 20.2545C18.2859 20.1716 18.3188 20.0922 18.3773 20.0336L19.9242 18.4867H19.9238ZM46.0801 18.4867L47.627 20.0336C47.6854 20.0922 47.7182 20.1715 47.7182 20.2543C47.7182 20.337 47.6854 20.4164 47.627 20.475L44.9754 23.1273C44.9464 23.1564 44.9119 23.1794 44.874 23.1952C44.836 23.2109 44.7954 23.219 44.7543 23.219C44.7132 23.219 44.6726 23.2109 44.6346 23.1952C44.5967 23.1794 44.5622 23.1564 44.5332 23.1273L42.9863 21.5805C42.9573 21.5514 42.9342 21.517 42.9185 21.479C42.9028 21.4411 42.8947 21.4004 42.8947 21.3594C42.8947 21.3183 42.9028 21.2776 42.9185 21.2397C42.9342 21.2018 42.9573 21.1673 42.9863 21.1383L45.6383 18.4867C45.6969 18.4282 45.7763 18.3953 45.8592 18.3953C45.942 18.3953 46.0215 18.4282 46.0801 18.4867ZM20.5 45.8438H45.5C45.8315 45.8438 46.1495 45.9754 46.3839 46.2099C46.6183 46.4443 46.75 46.7622 46.75 47.0938V48.0312C46.75 48.1141 46.7171 48.1936 46.6585 48.2522C46.5999 48.3108 46.5204 48.3438 46.4375 48.3438H19.5625C19.4796 48.3438 19.4001 48.3108 19.3415 48.2522C19.2829 48.1936 19.25 48.1141 19.25 48.0312V47.0938C19.25 46.7622 19.3817 46.4443 19.6161 46.2099C19.8505 45.9754 20.1685 45.8438 20.5 45.8438ZM26.2813 33.4609V43.3438H28.7813V33.4609H26.2813Z" fill="#FF6161"/>
</svg>
