<svg width="66" height="66" viewBox="0 0 66 66" fill="none" xmlns="http://www.w3.org/2000/svg">
<circle cx="33" cy="33" r="33" fill="#EFEFEF"/>
<g clip-path="url(#clip0_224_194)">
<path fill-rule="evenodd" clip-rule="evenodd" d="M20.75 40C20.8664 39.8448 21.0174 39.7188 21.191 39.632C21.3646 39.5452 21.5559 39.5 21.75 39.5H28C28.3315 39.5 28.6495 39.6317 28.8839 39.8661C29.1183 40.1005 29.25 40.4185 29.25 40.75C29.25 41.0815 29.1183 41.3995 28.8839 41.6339C28.6495 41.8683 28.3315 42 28 42H22.375L16.75 49.5H49.25L43.625 42H38C37.6685 42 37.3505 41.8683 37.1161 41.6339C36.8817 41.3995 36.75 41.0815 36.75 40.75C36.75 40.4185 36.8817 40.1005 37.1161 39.8661C37.3505 39.6317 37.6685 39.5 38 39.5H44.25C44.4441 39.5 44.6354 39.5452 44.809 39.632C44.9826 39.7188 45.1336 39.8448 45.25 40L52.75 50C52.8893 50.1857 52.9741 50.4065 52.9949 50.6377C53.0158 50.8689 52.9718 51.1014 52.868 51.309C52.7642 51.5167 52.6046 51.6913 52.4072 51.8133C52.2097 51.9354 51.9821 52 51.75 52H14.25C14.0179 52 13.7903 51.9354 13.5928 51.8133C13.3954 51.6913 13.2358 51.5167 13.132 51.309C13.0282 51.1014 12.9842 50.8689 13.0051 50.6377C13.0259 50.4065 13.1107 50.1857 13.25 50L20.75 40Z" fill="#6DADDC"/>
<path fill-rule="evenodd" clip-rule="evenodd" d="M23 22C23.0002 20.0756 23.5556 18.1921 24.5997 16.5755C25.6438 14.959 27.1322 13.678 28.8863 12.8863C30.6403 12.0947 32.5856 11.8259 34.4885 12.1124C36.3915 12.3989 38.1715 13.2283 39.6147 14.5013C41.058 15.7743 42.1033 17.4366 42.6252 19.2889C43.1471 21.1412 43.1235 23.1048 42.5571 24.944C41.9908 26.7832 40.9057 28.4199 39.4322 29.6578C37.9587 30.8956 36.1593 31.682 34.25 31.9226V45.75C34.25 46.0816 34.1183 46.3995 33.8839 46.6339C33.6495 46.8684 33.3315 47 33 47C32.6685 47 32.3505 46.8684 32.1161 46.6339C31.8817 46.3995 31.75 46.0816 31.75 45.75V31.925C29.3324 31.6205 27.1092 30.4436 25.498 28.6156C23.8869 26.7876 22.9986 24.4342 23 21.9976V22Z" fill="#6DADDC"/>
</g>
<defs>
<clipPath id="clip0_224_194">
<rect width="40" height="40" fill="white" transform="translate(13 12)"/>
</clipPath>
</defs>
</svg>
