<svg width="45" height="45" viewBox="0 0 45 45" fill="none" xmlns="http://www.w3.org/2000/svg">
<rect width="45" height="45" rx="8" fill="#FEFEFE" fill-opacity="0.92"/>
<path d="M22 26C24.2091 26 26 24.2091 26 22C26 19.7909 24.2091 18 22 18C19.7909 18 18 19.7909 18 22C18 24.2091 19.7909 26 22 26Z" fill="#85B6FF"/>
<path d="M23 14.069V12H21V14.069C19.2403 14.2937 17.605 15.0962 16.3506 16.3506C15.0962 17.605 14.2937 19.2403 14.069 21H12V23H14.069C14.2934 24.7598 15.0957 26.3953 16.3502 27.6498C17.6047 28.9043 19.2402 29.7066 21 29.931V32H23V29.931C24.7599 29.7068 26.3955 28.9045 27.65 27.65C28.9045 26.3955 29.7068 24.7599 29.931 23H32V21H29.931C29.7066 19.2402 28.9043 17.6047 27.6498 16.3502C26.3953 15.0957 24.7598 14.2934 23 14.069V14.069ZM22 28C18.691 28 16 25.309 16 22C16 18.691 18.691 16 22 16C25.309 16 28 18.691 28 22C28 25.309 25.309 28 22 28Z" fill="#85B6FF"/>
</svg>
